<?xml version="1.0" encoding="UTF-8"?>
<svg id="Layer_2" data-name="Layer 2" xmlns="http://www.w3.org/2000/svg" viewBox="0 0 103.776 12.425">
  <g id="OBJECTS">
    <g>
      <path d="M82.291,10.053c.199-.17.22-.428.278-.661.089-.357-.105-.557-.439-.466-.161.044-.317.112-.474.174-.757.3-1.527.525-2.344.539-.335.006-.671.037-1.004.074-.583.066-1.135.066-1.569-.46-.173-.21-.421-.19-.655-.092-.093.039-.194.073-.273.135-.893.711-1.975.59-2.989.764-.095.016-.202-.007-.297-.037-.137-.043-.237-.141-.23-.304.005-.104.039-.206.061-.309.123-.59-.009-.753-.51-.597-.74.23-1.469.499-2.213.712-.517.148-1.052.221-1.575.346-.293.07-.602.129-.862.276-.456.26-.922.408-1.44.398-.312-.006-.58.112-.809.36-.439.475-1.006.7-1.612.807-.859.152-1.707.378-2.582.43-.535.032-1.066.089-1.588.252-.357.111-.566-.074-.638-.461-.032-.173-.025-.358-.073-.525-.121-.421-.563-.564-.886-.279-.15.132-.266.314-.378.486-.115.177-.225.353-.415.451-.181.093-.381.224-.567.099-.201-.135-.145-.384-.088-.585.067-.235.192-.453.253-.689.048-.183-.045-.344-.2-.447-.174-.115-.413-.067-.551.088-.172.194-.198.438-.252.681-.125.563-.22.616-.771.471-.13-.034-.256-.086-.385-.125-.198-.061-.406-.089-.59.017-.474.273-1.062.18-1.511.548-.127.104-.323.073-.457-.079-.132-.149-.112-.395.041-.576.233-.276.539-.401.862-.521.443-.164.549-.494.329-.901-.09-.167-.227-.273-.405-.269-.748.016-1.457.197-2.11.595-.154.094-.245.239-.26.429-.006.07.014.144.003.212-.1.626-.447.883-.98.682-.377-.142-.733-.347-1.1-.522-.276-.132-.402-.097-.595.18-.059.085-.092.189-.145.28-.137.237-.336.327-.598.291-.399-.054-.798-.107-1.199-.14-.436-.036-.741-.207-.935-.665-.228-.537-.273-.548-.841-.381-.342.101-.606.008-.828-.22-.346-.356-.742-.478-1.199-.365-.579.142-.996-.341-1.567-.347.433-.578.574-.674,1.082-.707.401-.026.81.02,1.195-.131.079-.031.171-.144.178-.227.008-.082-.065-.222-.136-.253-.341-.152-.705-.282-1.073-.24-.867.098-1.731.23-2.593.368-.306.049-.366.231-.21.536.047.093.128.166.175.258.049.097.049.221-.04.283-.076.053-.198.098-.275.07-.187-.068-.366-.17-.537-.278-.229-.147-.438-.33-.672-.467-.451-.265-.91-.425-1.439-.189-.238.106-.532.162-.786.127-.947-.131-1.868-.023-2.786.222-.3.08-.601.037-.894-.063-.255-.087-.519-.155-.761-.274-.325-.159-.692.292-.951-.045-.179-.233-.207-.589-.35-.861-.123-.233-.371-.335-.613-.27-.863.232-1.735.148-2.606.128-.277-.006-.524.086-.774.199-.884.399-1.795.514-2.756.372-.488-.072-.991-.049-1.479.167-.5.221-1.025.331-1.544-.013-.247-.164-.52-.108-.767.042-.726.439-1.571.323-2.342.559-.135.041-.26-.096-.258-.255.002-.174.064-.347.072-.521.008-.182-.267-.345-.364-.214-.498.671-1.214.606-1.896.658-.1.008-.209-.025-.299.007-1.147.411-2.328.092-3.489.188-.401.033-.807-.015-1.184-.196-.99-.475-2.032-.398-3.07-.307-.6.052-1.198.154-1.792.262-.592.107-1.199.123-1.765.394-.2.096-.459.075-.691.075-.25,0-.453-.129-.578-.363C.598,7.978.162,7.097.023,6.094c-.092-.662.09-.998.686-1.24.249-.101.516-.156.778-.212,1.458-.314,2.824-.898,4.164-1.56.483-.239.963-.49,1.511-.518.066-.003.157.01.193-.029.549-.592,1.291-.424,1.954-.566.228-.049.481-.08.668-.209.478-.329,1.002-.394,1.542-.388.477.005.919-.099,1.375-.254.699-.238,1.429-.377,2.147-.552.096-.023.201-.015.301-.01.663.038.846.004,1.499-.276.472-.203.96-.304,1.473-.275.636.036,1.273.068,1.91.087.37.011.733.037,1.096.135.456.123.921.115,1.396.104.829-.017,1.674-.06,2.48.244.201.076.392.038.592-.002.946-.189,1.86-.132,2.739.349.348.19.719.371,1.153.16.158-.077.391.029.591.035.2.006.444.066.592-.03.44-.284.912-.165,1.37-.223.428-.054.801-.04,1.037.425.065.128.225.175.357.108.411-.208.6.052.817.363.255.364.38.357.749.088.028-.02.05-.05.079-.066.233-.128.393-.452.673-.414.343.047.267.439.372.682.096.222.288.287.496.163.087-.052.159-.131.245-.185,1.017-.643,2.064-.763,3.154-.211.118.06.265.146.375.118.531-.134.992.078,1.458.278.227.098.447.105.688.053.261-.057.532-.091.797-.084.338.01.672.07.872.425.149.264.385.371.667.415.594.093,1.175.238,1.787.243.426.003.788,0,1.099-.351.176-.198.428-.229.65-.084.38.248.765.248,1.155.065.44-.206.866-.07,1.277.066.519.171.748.595.585,1.156-.107.37-.061.686.027,1.034.095.373.25.722.266,1.129.023.58.591.926,1.076.654.309-.174.568-.348.924-.162.13.068.25-.043.358-.135.44-.375.887-.741,1.326-1.117.171-.146.144-.403-.05-.539-.344-.24-.709-.402-1.136-.305-.164.037-.328.094-.493.103-.423.023-.769.139-1.016.559-.141.24-.468.153-.562-.106-.036-.099-.062-.202-.083-.306-.223-1.115-.106-1.281.983-1.424.63-.083,1.249-.276,1.898-.146.146.029.345-.039.471-.134.609-.459,1.287-.307,1.949-.271.249.014.323.182.293.541-.006.069-.041.137-.042.206-.002.197.156.353.324.309.291-.076.572-.175.873-.228.434-.076.833-.19,1.269.05.342.189.732.068,1.076-.078.365-.155.703-.165,1.071-.01.448.188.92.189,1.388.077.199-.048.39-.086.592-.01.163.061.266.255.185.419-.077.155-.191.291-.26.449-.043.098.003.218.101.266.12.059.25.115.379.128.363.036.531-.153.531-.567,0-.499.006-.508.338-.612.293-.092.584-.14.892-.073.53.115,1.07.078,1.607.074.376-.003.718-.092,1.056-.287.609-.352,1.25-.444,1.925-.159.469.199.951.239,1.475.191.635-.058,1.259-.229,1.88-.261,1.24-.065,2.444-.419,3.697-.385.934.025,1.873-.125,2.808-.22.602-.061,1.203-.138,1.807-.065.174.021.327-.047.49-.074.394-.065.802-.155,1.189-.105.347.045.644.062.967-.109.255-.135.463-.025.6.203.127.211.085.411-.042.592-.211.302-.474.504-.858.416-.066-.015-.13-.043-.196-.05-.37-.038-.576.076-.633.343-.067.316.111.657.413.756.365.119.735.103,1.082-.064.335-.162.662-.345.938-.615.197-.192.403-.373.611-.551.41-.353.423-.364.807.035.157.163.294.262.523.23.123-.017.271.014.38.077.174.103.327.278.544.213.297-.088.555-.261.73-.536.093-.146.143-.321.234-.469.202-.329.555-.418.875-.235.029.017.064.032.084.058.553.742,1.201.511,1.782.112.46-.316.879-.476,1.406-.26.194.079.401.019.578-.101.364-.245.744-.253,1.16-.171.538.106,1.074.073,1.544-.287.206-.157.438-.153.675-.145.369.011.739.02,1.108.017.709-.006,1.409-.083,2.072-.375.446-.196.91-.238,1.384-.175.205.027.401.085.477.322.059.187-.003.367-.127.488-.93.906-1.661,2.039-2.879,2.62-.499.238-.931.659-1.42.963-.401.25-.668.72-.706,1.24-.043.594-.345.867-.852,1.027-.454.144-.883.309-1.373.16-.217-.066-.495-.093-.692-.005-.37.165-.625.095-.885-.203-.077-.089-.246-.141-.366-.129-.417.042-.798-.021-1.154-.268-.153-.106-.323-.023-.484.033-.35.12-.701.238-1.054.348-.2.062-.4.036-.587-.065-.123-.067-.242-.158-.234-.315.009-.166.14-.231.283-.241.099-.007.2.019.3.021.703.013.922-.174,1.002-.865.024-.211.037-.424.049-.637.022-.391-.078-.505-.452-.505-.617,0-1.208.082-1.682.564-.174.177-.388.304-.63.296-.593-.02-.985.405-1.435.698-.065.043-.118.188-.102.268.017.083.115.178.198.208.121.044.263.059.391.042.198-.026.39-.107.588-.131.276-.034.528.112.58.32.067.27-.04.492-.222.666-.284.27-.636.381-1.007.447-.43.076-.857.168-1.286.248-.274.051-.508.182-.707.382-.362.365-.583.772-.397,1.329.094.283-.043.474-.287.594-.172.084-.347-.017-.341-.213.004-.141.054-.284.041-.422-.057-.608-.437-.868-.969-.62-.327.153-.635.217-.971.101-.412-.143-.719.011-.961.364-.118.172-.23.35-.356.514-.088.114-.221.184-.357.15-.87-.221-1.734-.045-2.602.016-.836.058-1.675.055-2.512.088-.234.009-.466.06-.7.077-.045.003-.128-.062-.133-.105-.007-.055.034-.133.077-.174.177-.17.397-.364.624-.284.712.25,1.315-.112,1.95-.312.343-.108.66-.357,1.056-.158.125.063.245-.068.328-.187.1-.144.217-.254.381-.329.75-.343.798-.343,1.617.187ZM74.655,7.507c0,.106-.028.288.005.456.139.706.309.837.953.549.452-.202.654-.574.86-.975.087-.171-.026-.348-.229-.362-.098-.007-.199.02-.298.03-.431.043-.506-.38-.376-.64.238-.475.498-.923,1.105-.928.317-.002.568-.19.778-.43.28-.32.373-.773.172-.949-.256-.225-.485-.038-.729.088-.512.263-1.036.516-1.605.142-.155-.102-.325-.087-.476.008-.371.237-.736.484-1.102.73-.157.106-.223.245-.151.447.07.195.135.395.177.598.041.195.149.312.317.368.127.042.264.05.39.093.175.059.276.19.262.394-.008.105-.029.209-.054.381ZM55.616,9.231c.069,0,.104.005.136,0,.99-.165,1.982-.321,2.969-.507.185-.035.366-.173.519-.303.249-.214.189-.644-.103-.804-.317-.174-.641-.247-.912.092-.314.392-.747.421-1.183.485-.427.063-.69-.166-.957-.457-.126-.137-.318-.121-.467-.016-.194.137-.391.279-.552.455-.304.333-.139.886.288,1.011.096.028.197.035.262.046ZM47.204,6.966c-.59-.058-1.043.146-1.451.481-.193.159-.178.51.031.637.377.228.757.452,1.149.649.329.166.661.134.923-.156.185-.205.375-.393.595-.56.307-.233.269-.538-.046-.753-.388-.264-.847-.171-1.201-.298ZM81.309,6.355c-.457.304-.975.115-1.46.214-.424.086-.845.192-1.263.303-.199.053-.368.17-.457.378-.087.203-.105.423.032.6.139.182.341.219.54.1.501-.3,1.026-.428,1.612-.455.446-.021.922-.197,1.209-.644.047-.074.059-.211.027-.293-.031-.079-.139-.123-.24-.204ZM40.814,5.643c-.215.018-.401-.015-.543.054-.754.366-1.525.64-2.366.657-.054.001-.144.149-.151.234-.013.173.129.255.262.247.527-.033,1.053-.083,1.578-.143.127-.015.28-.056.367-.145.363-.372.768-.516,1.266-.374.104.03.171-.093.175-.206.004-.111-.048-.213-.152-.242-.158-.044-.322-.061-.437-.082ZM84.214,8.05c-.247.067-.506.121-.754.212-.158.058-.279.189-.302.381-.024.208.099.324.256.397.211.099.423.205.645.266.424.116.778-.051,1.073-.371.204-.222.136-.598-.132-.688-.25-.084-.511-.13-.786-.197ZM60.313,5.742c.663-.032,1.327-.063,1.99-.096.342-.017.654-.126.92-.356.042-.036.077-.12.067-.172-.011-.058-.066-.126-.118-.155-.421-.231-.833-.193-1.228.074-.501.339-1.035.462-1.619.307-.193-.052-.399-.122-.518.134-.079.17.147.294.506.265ZM80.387,4.437c.141.008.274.023.405.02.408-.008.774-.174,1.13-.363.048-.026.097-.102.1-.158.002-.055-.041-.138-.087-.164-.298-.168-.622-.327-.931-.078-.305.246-.63.356-1.006.369-.137.005-.26.125-.254.277.011.276.206.199.361.169.097-.019.192-.05.281-.073ZM52.296,8.803c.412.023.675.007.888-.197.137-.131.177-.295.084-.469-.085-.161-.234-.31-.399-.221-.297.162-.58.258-.921.182-.122-.027-.23.125-.251.276-.028.203.067.339.25.383.16.038.327.043.349.046ZM48.864,6.793c-.01.306.18.475.304.354.242-.237.559-.201.831-.318.132-.057.228-.153.207-.316-.019-.148-.107-.268-.24-.306-.385-.11-.725.005-.993.305-.082.091-.097.249-.108.281ZM43.245,4.757c.047-.008.145-.018.24-.042.203-.05.308-.266.242-.488-.066-.223-.255-.351-.451-.284-.187.064-.37.146-.548.234-.051.025-.116.109-.109.153.016.095.057.199.119.267.12.133.287.156.506.159ZM83.343,4.985c.074-.009.173-.01.266-.034.128-.033.259-.096.261-.256.002-.15-.108-.242-.235-.287-.091-.032-.189-.053-.284-.057-.279-.01-.525.17-.489.368.048.267.268.247.482.265ZM94.467,3.165c-.262,0-.45.194-.42.438.02.165.137.227.273.229.291.004.514-.168.484-.37-.029-.191-.156-.284-.336-.296ZM71.721,5.09c.054.043.129.154.204.154.236,0,.486-.257.54-.531.01-.052-.036-.145-.082-.174-.167-.108-.318-.008-.458.08-.151.095-.244.233-.204.47ZM68.661,8.382c-.089.008-.155.007-.218.021-.129.028-.252.068-.287.231-.029.136.157.326.321.296.156-.028.309-.088.459-.147.097-.038.163-.126.126-.238-.017-.051-.084-.101-.138-.119-.091-.03-.19-.033-.262-.044ZM49.315,10.953c.012-.208-.094-.346-.271-.383-.171-.037-.334.017-.39.232-.057.222.086.436.301.447.197.01.304-.109.36-.295ZM94.842,6.993c.221.026.441-.252.362-.475-.018-.051-.094-.106-.146-.11-.209-.014-.385.152-.39.365-.002.112.066.187.174.22ZM42.957,6.103c.08-.167.025-.253-.057-.308-.119-.081-.25-.076-.331.056-.063.103.008.189.093.244.117.075.234.104.294.008ZM74.011,9.237c.104-.004.199-.037.206-.16.002-.036-.083-.112-.121-.108-.054.007-.114.062-.148.114-.047.072-.016.131.063.154ZM35.858,6.345c-.081-.017-.127.017-.125.101,0,.03.028.083.043.083.056-.001.112-.019.168-.031-.029-.051-.057-.102-.086-.153ZM60.71,9.488c-.011-.029-.022-.058-.033-.087-.049.025-.1.047-.146.078-.004.003.02.054.03.083.05-.024.1-.048.149-.073ZM56.499,4.616c0-.028.011-.069-.002-.082-.059-.057-.106-.039-.117.045-.003.02.025.058.044.063.022.006.05-.017.074-.027ZM47.345,9.802c.007-.085-.027-.14-.102-.137-.08.003-.116.062-.095.143.008.03.033.065.059.078.072.036.12.003.138-.083ZM95.402,5.218c-.001-.079-.033-.096-.089-.043-.007.006.009.058.024.065.016.007.043-.013.066-.022Z"/>
      <path d="M38.304,10.349c.138.011.239.089.237.246-.002.151-.092.251-.243.242-.14-.009-.246-.102-.251-.251-.005-.158.107-.227.256-.237Z"/>
      <path d="M90.75,10.149c.037.042.102.083.106.129.009.103-.043.196-.15.199-.036.001-.102-.076-.105-.122-.008-.102.039-.185.149-.206Z"/>
      <polygon points="89.758 3.059 89.709 3.117 89.686 3.046 89.758 3.059"/>
    </g>
  </g>
</svg>